<mxfile host="app.diagrams.net" modified="2024-03-12T02:28:08.934Z" agent="Mozilla/5.0 (Macintosh; Intel Mac OS X 10_15_7) AppleWebKit/537.36 (KHTML, like Gecko) Chrome/108.0.0.0 Safari/537.36" etag="8NUE_gW3dD1n2kIWihb_" version="24.0.5" type="github">
  <diagram name="第 1 页" id="YLRSYDU91qsdjtBj97Pk">
    <mxGraphModel dx="1306" dy="726" grid="1" gridSize="1" guides="1" tooltips="1" connect="1" arrows="1" fold="1" page="1" pageScale="1" pageWidth="827" pageHeight="1169" math="0" shadow="0">
      <root>
        <mxCell id="0" />
        <mxCell id="1" parent="0" />
        <mxCell id="2uMhMX6tm76IPCI2PlRw-1" value="向量加法" style="text;html=1;align=center;verticalAlign=middle;resizable=0;points=[];autosize=1;strokeColor=none;fillColor=none;" vertex="1" parent="1">
          <mxGeometry x="35" y="28" width="70" height="30" as="geometry" />
        </mxCell>
        <mxCell id="2uMhMX6tm76IPCI2PlRw-4" value="" style="group" vertex="1" connectable="0" parent="1">
          <mxGeometry x="161" y="32" width="480" height="480" as="geometry" />
        </mxCell>
        <mxCell id="2uMhMX6tm76IPCI2PlRw-2" value="" style="endArrow=classic;html=1;rounded=0;" edge="1" parent="2uMhMX6tm76IPCI2PlRw-4">
          <mxGeometry width="50" height="50" relative="1" as="geometry">
            <mxPoint x="240" y="480" as="sourcePoint" />
            <mxPoint x="240" as="targetPoint" />
          </mxGeometry>
        </mxCell>
        <mxCell id="2uMhMX6tm76IPCI2PlRw-3" value="" style="endArrow=classic;html=1;rounded=0;" edge="1" parent="2uMhMX6tm76IPCI2PlRw-4">
          <mxGeometry width="50" height="50" relative="1" as="geometry">
            <mxPoint y="240" as="sourcePoint" />
            <mxPoint x="480" y="240" as="targetPoint" />
          </mxGeometry>
        </mxCell>
      </root>
    </mxGraphModel>
  </diagram>
</mxfile>
